inDegrees=yes
name=ik_S51_A01_T02
DataType=double
version=3
OpenSimVersion=4.3-2021-08-27-4bc7ad9
endheader
time	pelvis_tilt	pelvis_list	pelvis_rotation	pelvis_tx	pelvis_ty	pelvis_tz	hip_flexion_r	hip_adduction_r	hip_rotation_r	knee_angle_r	knee_angle_r_beta	ankle_angle_r	subtalar_angle_r	mtp_angle_r	hip_flexion_l	hip_adduction_l	hip_rotation_l	knee_angle_l	knee_angle_l_beta	ankle_angle_l	subtalar_angle_l	mtp_angle_l	lumbar_extension	lumbar_bending	lumbar_rotation	arm_flex_r	arm_add_r	arm_rot_r	elbow_flex_r	pro_sup_r	wrist_flex_r	wrist_dev_r	arm_flex_l	arm_add_l	arm_rot_l	elbow_flex_l	pro_sup_l	wrist_flex_l	wrist_dev_l
18.99999999999968	2.427597647620892	-3.746003786951942	93.35858392184934	0	0.9399999999999999	0	7.633140070464522	-4.339450319060978	-16.26526665795079	12.77257168350159	0.2229234298240978	0	0	0	4.900227567623339	-1.836796135557756	-2.338313197412352	7.770871964162542	0.1356273015255552	0	0	0	0	0	0	40.09195907245972	-40.09195907245971	4.891671609210521	83.47251469458085	85.10832866067199	0	0	40.09195907245972	-40.09195907245971	4.891671609210521	83.47251469458085	85.10832866065191	0	0
19.01999999999968	2.444632120815939	-3.763842938995862	93.10029025704264	0	0.9399999999999999	0	9.651723121972275	-5.209426919923597	-15.19379779463095	14.71481123268568	0.2568219048198105	0	0	0	4.490399776348016	-1.777682133029611	-2.122199612259257	7.404267456956455	0.1292288458221577	0	0	0	0	0	0	40.12523258564474	-40.12523258564473	4.892919754578316	83.49011630668274	85.10708051535846	0	0	40.12523258564474	-40.12523258564473	4.892919754578316	83.49011630668274	85.10708051533871	0	0
19.03999999999968	2.254343333635661	-3.981842158429164	92.58299003057543	0	0.9399999999999999	0	13.60845363115046	-7.669645304816349	-13.97678998355438	22.40068530995135	0.3909657133617775	0	0	0	4.28735703665859	-1.515786388070789	-2.118438842932796	7.061316161524216	0.1232432165428853	0	0	0	0	0	0	40.2129673680519	-40.21296736805189	4.896182180057716	83.53612338897308	85.10381809002081	0	0	40.2129673680519	-40.21296736805189	4.896182180057716	83.53612338897308	85.10381809000174	0	0
19.05999999999968	2.252330769929127	-3.984758988061571	92.58232004807299	0	0.9399999999999999	0	13.56922875969461	-7.781328879323653	-14.06257040485337	23.79149163553539	0.4152398630007834	0	0	0	3.908159131201098	-1.427987630313875	-1.830885354048832	6.763422293308313	0.1180439877210157	0	0	0	0	0	0	40.21412663298735	-40.21412663298735	4.896232693156039	83.53683581297619	85.10376757692481	0	0	40.21412663298735	-40.21412663298735	4.896232693156039	83.53683581297619	85.10376757690574	0	0
19.07999999999968	1.909718476785026	-4.318862048826037	91.8972307841445	0	0.9399999999999999	0	16.64788726108351	-9.355566922544991	-15.56162101113025	27.13078240465531	0.4735214816033798	0	0	0	3.564648966017838	-0.9798654732671177	-2.471406710503926	6.290518633125865	0.1097902618060996	0	0	0	0	0	0	40.23656667206144	-40.23656667206144	4.897071449105053	83.54866408963358	85.10292882101228	0	0	40.23656667206144	-40.23656667206144	4.897071449105053	83.54866408963358	85.10292882099336	0	0
19.09999999999968	1.898923574250722	-4.501487428551769	91.62121534954119	0	0.9399999999999999	0	17.90923760126995	-9.882875547640152	-16.39953707686057	27.06206783334446	0.4723221860899089	0	0	0	3.446404470724719	-0.9351169775862676	-2.652813274222293	6.178158234002166	0.1078292028925361	0	0	0	0	0	0	40.23762713670028	-40.23762713670028	4.897117467250146	83.54931311426456	85.10288280286926	0	0	40.23762713670028	-40.23762713670028	4.897117467250146	83.54931311426456	85.10288280285035	0	0
19.11999999999968	1.984854265505604	-4.682629266478129	91.33785378274432	0	0.9399999999999999	0	19.21510896049309	-10.11176614859443	-16.92059020563056	26.14371829123081	0.4562939628958433	0	0	0	3.604573402438837	-1.029076097838892	-2.931029112997943	6.111871800247737	0.1066722863741162	0	0	0	0	0	0	40.23949894807647	-40.23949894807647	4.897198791515635	83.55046008552492	85.10280147860739	0	0	40.23949894807647	-40.23949894807647	4.897198791515635	83.55046008552492	85.10280147858849	0	0
19.13999999999968	2.106145168330737	-4.824808064183049	91.04401030810136	0	0.9399999999999999	0	20.5020255056742	-10.15514458641589	-17.10197030169191	24.35352015952897	0.4250491112345952	0	0	0	3.387949570774297	-1.11828365295202	-2.888682105769854	5.841425887170272	0.101952114742352	0	0	0	0	0	0	40.24122418023175	-40.24122418023175	4.897273652048787	83.55151589316078	85.1027266180776	0	0	40.24122418023175	-40.24122418023175	4.897273652048787	83.55151589316078	85.1027266180587	0	0
19.15999999999968	2.100669217770191	-4.834064535423028	91.04912842809594	0	0.9399999999999999	0	21.57677751376887	-10.28506535866076	-17.26068249067181	22.20915315566663	0.3876228466460714	0	0	0	3.028922312919324	-1.036978771391185	-2.537074275780192	5.681972532172513	0.09916912869428979	0	0	0	0	0	0	40.24272982001514	-40.24272982001514	4.897338858653077	83.55243554365488	85.10266141147623	0	0	40.24272982001514	-40.24272982001514	4.897338858653077	83.55243554365488	85.10266141145735	0	0
19.17999999999968	2.169448949440766	-4.892612128415522	90.90685913308648	0	0.9399999999999999	0	21.73032551883222	-9.915100903948197	-17.16629025087649	18.67346879893028	0.3259135133097644	0	0	0	2.221930104315328	-1.052811049142515	-2.376224218095313	4.93316071631932	0.0860998970298141	0	0	0	0	0	0	40.24451813787921	-40.2445181378792	4.897415838540862	83.55352123554715	85.10258443159179	0	0	40.24451813787921	-40.2445181378792	4.897415838540862	83.55352123554715	85.10258443157292	0	0
19.19999999999968	2.432812460597298	-4.851443238579875	90.45775788582459	0	0.9399999999999999	0	22.81965321922156	-9.468560862938379	-16.74133693532888	16.13137653843309	0.281545633474623	0	0	0	2.169202028422584	-1.333579159662138	-2.866006176161182	5.099861653597083	0.08900937725147161	0	0	0	0	0	0	40.2464131936807	-40.24641319368069	4.897497881497633	83.55467833908234	85.1025023886387	0	0	40.2464131936807	-40.24641319368069	4.897497881497633	83.55467833908234	85.10250238861987	0	0
19.21999999999968	2.526701058458479	-4.8213748064609	90.37371274590664	0	0.9399999999999999	0	23.8568454592742	-9.15737596590262	-16.30679062727298	13.52291428524628	0.2360193787425232	0	0	0	1.691021284182843	-1.413336265909872	-2.905709124141335	4.914851595393221	0.08578034258650787	0	0	0	0	0	0	40.24802553787931	-40.24802553787931	4.897567491936837	83.55566009688255	85.1024327782026	0	0	40.24802553787931	-40.24802553787931	4.897567491936837	83.55566009688255	85.10243277818377	0	0
